<svg width="34" height="35" viewBox="0 0 34 35" fill="none" xmlns="http://www.w3.org/2000/svg">
<path d="M28.8616 11.5444C29.7756 11.5444 30.6494 11.9365 31.2581 12.6196C31.8657 13.304 32.1534 14.2185 32.0461 15.1274L30.3684 29.1401C30.1772 30.7516 28.8086 31.9692 27.1838 31.9692H23.5139V22.73H20.803L17.7551 29.3403L14.7209 22.73H12.01V31.9692H8.52759C6.90275 31.9692 5.53423 30.7517 5.34302 29.1382L3.6643 15.1294C3.55712 14.2183 3.84561 13.3039 4.45337 12.6206C5.06201 11.9366 5.93497 11.5445 6.84985 11.5444H28.8616ZM20.8303 31.9692H19.0413L20.8303 28.2671V31.9692ZM16.4827 31.9692H14.6936V28.2671L16.4827 31.9692Z" fill="#CDFF65"/>
<path d="M23.7758 17.8197C23.1978 17.8197 22.7299 17.3519 22.7299 16.7739V9.96017C22.7299 7.29335 20.5595 5.12291 17.8927 5.12291C15.2258 5.12291 13.0554 7.29335 13.0554 9.96017V16.7737C13.0554 17.3518 12.5876 17.8196 12.0095 17.8196C11.4315 17.8196 10.9636 17.3518 10.9636 16.7737V9.96017C10.9636 6.13921 14.0717 3.03113 17.8927 3.03113C21.7136 3.03113 24.8217 6.13921 24.8217 9.96017V16.7737C24.8217 17.3519 24.3539 17.8197 23.7758 17.8197Z" fill="#EBF3EA"/>
</svg>
