<svg width="25" height="25" viewBox="0 0 25 25" fill="currentColor" xmlns="http://www.w3.org/2000/svg">
<path d="M23.8538 9.96107L13.8538 0.526067C13.8489 0.521803 13.8443 0.517209 13.84 0.512317C13.4718 0.177484 12.992 -0.00805664 12.4944 -0.00805664C11.9967 -0.00805664 11.5169 0.177484 11.1488 0.512317L11.135 0.526067L1.14625 9.96107C0.942497 10.1484 0.779855 10.376 0.668614 10.6295C0.557374 10.883 0.499958 11.1568 0.5 11.4336V22.9898C0.5 23.5203 0.710714 24.029 1.08579 24.404C1.46086 24.7791 1.96957 24.9898 2.5 24.9898H8.5C9.03043 24.9898 9.53914 24.7791 9.91421 24.404C10.2893 24.029 10.5 23.5203 10.5 22.9898V16.9898H14.5V22.9898C14.5 23.5203 14.7107 24.029 15.0858 24.404C15.4609 24.7791 15.9696 24.9898 16.5 24.9898H22.5C23.0304 24.9898 23.5391 24.7791 23.9142 24.404C24.2893 24.029 24.5 23.5203 24.5 22.9898V11.4336C24.5 11.1568 24.4426 10.883 24.3314 10.6295C24.2201 10.376 24.0575 10.1484 23.8538 9.96107ZM22.5 22.9898H16.5V16.9898C16.5 16.4594 16.2893 15.9507 15.9142 15.5756C15.5391 15.2005 15.0304 14.9898 14.5 14.9898H10.5C9.96957 14.9898 9.46086 15.2005 9.08579 15.5756C8.71071 15.9507 8.5 16.4594 8.5 16.9898V22.9898H2.5V11.4336L2.51375 11.4211L12.5 1.98982L22.4875 11.4186L22.5012 11.4311L22.5 22.9898Z"/>
</svg>
