<svg width="25" height="25" viewBox="0 0 25 25" fill="currentColor" xmlns="http://www.w3.org/2000/svg">
<path d="M27.5 2.98987V6.98987C27.5 7.25508 27.3946 7.50944 27.2071 7.69697C27.0196 7.88451 26.7652 7.98987 26.5 7.98987C26.2348 7.98987 25.9804 7.88451 25.7929 7.69697C25.6054 7.50944 25.5 7.25508 25.5 6.98987V2.98987H21.5C21.2348 2.98987 20.9804 2.88451 20.7929 2.69697C20.6054 2.50944 20.5 2.25508 20.5 1.98987C20.5 1.72465 20.6054 1.4703 20.7929 1.28276C20.9804 1.09523 21.2348 0.989868 21.5 0.989868H26.5C26.7652 0.989868 27.0196 1.09523 27.2071 1.28276C27.3946 1.4703 27.5 1.72465 27.5 1.98987ZM7.5 20.9899H2.5V16.9899C2.5 16.7247 2.39464 16.4703 2.20711 16.2828C2.01957 16.0952 1.76522 15.9899 1.5 15.9899C1.23478 15.9899 0.98043 16.0952 0.792893 16.2828C0.605357 16.4703 0.5 16.7247 0.5 16.9899V21.9899C0.5 22.2551 0.605357 22.5094 0.792893 22.697C0.98043 22.8845 1.23478 22.9899 1.5 22.9899H7.5C7.76522 22.9899 8.01957 22.8845 8.20711 22.697C8.39464 22.5094 8.5 22.2551 8.5 21.9899C8.5 21.7247 8.39464 21.4703 8.20711 21.2828C8.01957 21.0952 7.76522 20.9899 7.5 20.9899ZM26.5 15.9899C26.2348 15.9899 25.9804 16.0952 25.7929 16.2828C25.6054 16.4703 25.5 16.7247 25.5 16.9899V20.9899H21.5C21.2348 20.9899 20.9804 21.0952 20.7929 21.2828C20.6054 21.4703 20.5 21.7247 20.5 21.9899C20.5 22.2551 20.6054 22.5094 20.7929 22.697C20.9804 22.8845 21.2348 22.9899 21.5 22.9899H26.5C26.7652 22.9899 27.0196 22.8845 27.2071 22.697C27.3946 22.5094 27.5 22.2551 27.5 21.9899V16.9899C27.5 16.7247 27.3946 16.4703 27.2071 16.2828C27.0196 16.0952 26.7652 15.9899 26.5 15.9899ZM1.5 7.98987C1.76522 7.98987 2.01957 7.88451 2.20711 7.69697C2.39464 7.50944 2.5 7.25508 2.5 6.98987V2.98987H7.5C7.76522 2.98987 8.01957 2.88451 8.20711 2.69697C8.39464 2.50944 8.5 2.25508 8.5 1.98987C8.5 1.72465 8.39464 1.4703 8.20711 1.28276C8.01957 1.09523 7.76522 0.989868 7.5 0.989868H1.5C1.23478 0.989868 0.98043 1.09523 0.792893 1.28276C0.605357 1.4703 0.5 1.72465 0.5 1.98987V6.98987C0.5 7.25508 0.605357 7.50944 0.792893 7.69697C0.98043 7.88451 1.23478 7.98987 1.5 7.98987ZM8.5 5.98987C8.23478 5.98987 7.98043 6.09523 7.79289 6.28276C7.60536 6.4703 7.5 6.72465 7.5 6.98987V16.9899C7.5 17.2551 7.60536 17.5094 7.79289 17.697C7.98043 17.8845 7.23478 17.9899 7.5 17.9899C7.76522 17.9899 8.01957 17.8845 8.20711 17.697C8.39464 17.5094 8.5 17.2551 8.5 16.9899V6.98987C8.5 6.72465 8.39464 6.4703 8.20711 6.28276C8.01957 6.09523 7.76522 5.98987 7.5 5.98987ZM21.5 16.9899V6.98987C21.5 6.72465 21.3946 6.4703 21.2071 6.28276C21.0196 6.09523 20.7652 5.98987 20.5 5.98987C20.2348 5.98987 19.9804 6.09523 19.7929 6.28276C19.6054 6.4703 19.5 6.72465 19.5 6.98987V16.9899C19.5 17.2551 19.6054 17.5094 19.7929 17.697C19.9804 17.8845 20.2348 17.9899 20.5 17.9899C20.7652 17.9899 21.0196 17.8845 21.2071 17.697C21.3946 17.5094 21.5 17.2551 21.5 16.9899ZM16.5 5.98987C16.2348 5.98987 15.9804 6.09523 15.7929 6.28276C15.6054 6.4703 15.5 6.72465 15.5 6.98987V16.9899C15.5 17.2551 15.6054 17.5094 15.7929 17.697C15.9804 17.8845 16.2348 17.9899 16.5 17.9899C16.7652 17.9899 17.0196 17.8845 17.2071 17.697C17.3946 17.5094 17.5 17.2551 17.5 16.9899V6.98987C17.5 6.72465 17.3946 6.4703 17.2071 6.28276C17.0196 6.09523 16.7652 5.98987 16.5 5.98987ZM12.5 5.98987C12.2348 5.98987 11.9804 6.09523 11.7929 6.28276C11.6054 6.4703 11.5 6.72465 11.5 6.98987V16.9899C11.5 17.2551 11.6054 17.5094 11.7929 17.697C11.9804 17.8845 12.2348 17.9899 12.5 17.9899C12.7652 17.9899 13.0196 17.8845 13.2071 17.697C13.3946 17.5094 13.5 17.2551 13.5 16.9899V6.98987C13.5 6.72465 13.3946 6.4703 13.2071 6.28276C13.0196 6.09523 12.7652 5.98987 12.5 5.98987Z"/>
</svg>
